<svg width="73" height="24" viewBox="0 0 73 24" fill="none" xmlns="http://www.w3.org/2000/svg">
<path d="M11.5243 7.4901H7.81467C6.51422 7.4901 5.85982 7.84022 5.85982 7.84022V0H0.0703125V24H5.85565V14.3133C5.85565 13.4588 6.55173 12.7628 7.40619 12.7628H10.774C11.6327 12.7628 12.3246 13.4547 12.3246 14.3133V24H18.1099V13.5672C18.1099 9.17819 15.1839 7.4901 11.5243 7.4901Z" fill="#00EA76"/>
<path d="M67.1432 23.9729C70.7611 23.9729 72.9285 21.397 72.9285 17.6582V7.49219H67.1432V17.1747C67.1432 18.0333 66.4513 18.7253 65.5927 18.7253H62.2248C61.3662 18.7253 60.6743 18.0333 60.6743 17.1747V7.49219H54.8848V17.6582C54.8848 21.8138 57.544 24.0021 61.4746 24.0021L67.139 23.9729H67.1432Z" fill="#00EA76"/>
<path d="M34.4984 23.9729C38.1163 23.9729 40.2837 21.397 40.2837 17.6582V7.49219H34.4984V17.1747C34.4984 18.0333 33.8065 18.7253 32.9479 18.7253H29.58C28.7214 18.7253 28.0295 18.0333 28.0295 17.1747V7.49219H22.2441V17.6582C22.2441 21.8138 24.9034 24.0021 28.8339 24.0021L34.4984 23.9729Z" fill="#00EA76"/>
<path d="M50.4887 0H44.6992V24H50.4887V0Z" fill="#00EA76"/>
</svg>
